<svg width="515" height="277" viewBox="0 0 515 277" fill="none" xmlns="http://www.w3.org/2000/svg">
<path d="M99.4481 153.941C93.7592 155.762 86.0223 157.468 76.2374 159.061C66.4525 160.654 58.8294 161.451 53.3681 161.451C32.2054 161.451 17.3005 154.852 8.65343 141.653C0.233876 128.455 -2.04168 108.089 1.82677 80.5547C5.69521 52.7929 13.7734 32.4267 26.0614 19.456C38.3494 6.48533 55.0748 0 76.2374 0C82.609 0 89.3219 0.682668 96.3761 2.048C103.43 3.41334 108.095 4.55112 110.371 5.46133C112.646 6.37155 114.239 6.94044 115.149 7.168L107.299 31.744C103.203 29.696 97.969 28.2169 91.5974 27.3067C85.2259 26.3964 80.7885 25.9413 78.2854 25.9413C64.6321 25.9413 54.7334 30.4924 48.5894 39.5947C42.4454 48.4693 38.2357 62.1227 35.9601 80.5547C33.2294 99.4418 33.6845 113.095 37.3254 121.515C41.4214 130.617 49.841 135.168 62.5841 135.168H69.4108L75.2134 93.8667H58.8294L62.5841 67.9253H111.395L99.4481 153.941Z" fill="white"/>
<path d="M180.618 134.827C189.948 134.827 197.23 130.162 202.463 120.832C207.697 111.275 211.452 97.8489 213.727 80.5547C216.231 63.0329 216.117 49.6071 213.386 40.2773C210.655 30.72 204.739 25.9413 195.637 25.9413C186.762 25.9413 179.708 30.72 174.474 40.2773C169.24 49.6071 165.372 63.0329 162.869 80.5547C160.366 97.8489 160.366 111.275 162.869 120.832C165.372 130.162 171.288 134.827 180.618 134.827ZM199.391 0C218.506 0 232.273 6.48533 240.693 19.456C249.112 32.4267 251.388 52.7929 247.519 80.5547C243.651 108.089 235.687 128.341 223.626 141.312C211.566 154.283 195.978 160.768 176.863 160.768C137.496 160.768 121.567 134.03 129.077 80.5547C132.945 52.7929 140.91 32.4267 152.97 19.456C165.031 6.48533 180.504 0 199.391 0Z" fill="white"/>
<path d="M364.794 153.941C359.105 155.762 351.368 157.468 341.583 159.061C331.798 160.654 324.175 161.451 318.714 161.451C297.551 161.451 282.646 154.852 273.999 141.653C265.58 128.455 263.304 108.089 267.172 80.5547C271.041 52.7929 279.119 32.4267 291.407 19.456C303.695 6.48533 320.42 4.81479e-06 341.583 6.66489e-06C347.955 7.22191e-06 354.668 0.682676 361.722 2.04801C368.776 3.41335 373.441 4.55113 375.716 5.46134C377.992 6.37156 379.585 6.94045 380.495 7.16801L372.644 31.744C368.548 29.696 363.315 28.2169 356.943 27.3067C350.572 26.3965 346.134 25.9413 343.631 25.9413C329.978 25.9413 320.079 30.4924 313.935 39.5947C307.791 48.4693 303.581 62.1227 301.306 80.5547C298.575 99.4418 299.03 113.095 302.671 121.515C306.767 130.617 315.187 135.168 327.93 135.168L334.756 135.168L340.559 93.8667L324.175 93.8667L327.93 67.9253L376.74 67.9253L364.794 153.941Z" fill="#00D460"/>
<path d="M445.964 134.827C455.294 134.827 462.575 130.162 467.809 120.832C473.043 111.275 476.798 97.8489 479.073 80.5547C481.576 63.0329 481.462 49.6071 478.732 40.2774C476.001 30.72 470.085 25.9413 460.982 25.9413C452.108 25.9413 445.054 30.72 439.82 40.2774C434.586 49.6071 430.718 63.0329 428.214 80.5547C425.711 97.8489 425.711 111.275 428.214 120.832C430.718 130.162 436.634 134.827 445.964 134.827ZM464.737 1.74314e-05C483.852 1.91024e-05 497.619 6.48535 506.038 19.456C514.458 32.4267 516.734 52.7929 512.865 80.5547C508.997 108.089 501.032 128.341 488.972 141.312C476.911 154.283 461.324 160.768 442.209 160.768C402.842 160.768 386.913 134.03 394.422 80.5547C398.291 52.7929 406.255 32.4267 418.316 19.456C430.376 6.48535 445.85 1.57802e-05 464.737 1.74314e-05Z" fill="#00D460"/>
<path d="M40.7155 186.449C46.8038 186.449 51.3066 187.02 54.2239 188.162C57.1412 189.303 59.1706 190.191 60.3122 190.825C61.5806 191.459 62.5319 191.903 63.166 192.157L56.8875 205.285L54.4141 203.953C49.2137 201.416 44.6475 200.148 40.7155 200.148C37.4176 200.148 34.5003 201.289 31.9635 203.573C29.6804 205.729 28.5389 207.758 28.5389 209.661C28.1584 212.324 28.6023 214.608 29.8707 216.51C31.2659 218.413 33.0417 220.189 35.1979 221.837C37.3542 223.486 39.7007 225.135 42.2375 226.784C44.9012 228.433 47.2477 230.336 49.2771 232.492C54.3507 237.439 56.3167 243.654 55.1752 251.137C54.1604 258.621 50.926 264.646 45.4719 269.212C40.0178 273.778 32.5343 276.061 23.0214 276.061C15.2842 276.061 8.56166 274.476 2.85389 271.305C1.71233 270.544 0.761037 269.973 0 269.592L6.08829 256.465C6.72249 256.718 7.54695 257.162 8.56166 257.796C9.70322 258.431 10.9716 259.001 12.3668 259.509C15.9183 261.031 19.2162 261.792 22.2603 261.792C27.8413 261.792 32.027 259.889 34.8174 256.084C35.7053 254.943 36.2761 253.357 36.5298 251.328C36.9103 249.171 36.4029 247.269 35.0077 245.62C33.6125 243.844 31.8367 242.195 29.6804 240.673C27.5242 239.024 25.1776 237.375 22.6408 235.726C20.1041 233.951 17.7575 231.985 15.6013 229.828C10.6545 224.882 8.6885 218.666 9.70322 211.183C10.7179 203.573 13.9523 197.548 19.4064 193.108C24.8605 188.669 31.9635 186.449 40.7155 186.449Z" fill="white"/>
<path d="M100.802 261.602C106.003 261.602 110.062 259.001 112.979 253.801C115.896 248.474 117.989 240.99 119.258 231.35C120.653 221.584 120.589 214.1 119.067 208.9C117.545 203.573 114.247 200.909 109.174 200.909C104.227 200.909 100.295 203.573 97.3778 208.9C94.4605 214.1 92.3042 221.584 90.909 231.35C89.5137 240.99 89.5137 248.474 90.909 253.801C92.3042 259.001 95.602 261.602 100.802 261.602ZM111.267 186.449C121.921 186.449 129.595 190.064 134.288 197.294C138.981 204.524 140.249 215.876 138.093 231.35C135.937 246.698 131.498 257.987 124.775 265.217C118.053 272.446 109.364 276.061 98.7096 276.061C76.7664 276.061 67.8876 261.158 72.0733 231.35C74.2296 215.876 78.669 204.524 85.3914 197.294C92.1139 190.064 100.739 186.449 111.267 186.449Z" fill="white"/>
<path d="M146.039 274.349L158.215 187.971H176.48L166.206 259.509H191.891L188.657 274.349H146.039Z" fill="white"/>
<path d="M205.779 187.971H224.044L217.575 234.014C215.927 243.781 215.356 250.249 215.863 253.42C216.497 256.591 217.449 258.748 218.717 259.889C220.112 261.031 222.078 261.602 224.615 261.602C231.464 261.602 235.714 256.465 237.362 246.191C237.997 242.766 238.694 238.707 239.455 234.014L245.734 187.971H263.808L257.34 234.014C255.31 249.235 251.695 260.016 246.495 266.358C241.294 272.827 233.367 276.061 222.712 276.061C212.312 276.061 205.272 272.827 201.594 266.358C197.915 259.889 197.091 249.108 199.12 234.014L205.779 187.971Z" fill="white"/>
<path d="M322.599 202.812H305.095L295.011 274.349H276.746L286.64 202.812H268.945L270.848 187.971H324.882L322.599 202.812Z" fill="white"/>
<path d="M349.082 274.349H330.817L342.993 187.971H361.258L349.082 274.349Z" fill="white"/>
<path d="M398.036 261.602C403.236 261.602 407.295 259.001 410.213 253.801C413.13 248.474 415.223 240.99 416.491 231.35C417.886 221.584 417.823 214.1 416.301 208.9C414.779 203.573 411.481 200.909 406.407 200.909C401.461 200.909 397.529 203.573 394.611 208.9C391.694 214.1 389.538 221.584 388.142 231.35C386.747 240.99 386.747 248.474 388.142 253.801C389.538 259.001 392.836 261.602 398.036 261.602ZM408.5 186.449C419.155 186.449 426.828 190.064 431.522 197.294C436.215 204.524 437.483 215.876 435.327 231.35C433.17 246.698 428.731 257.987 422.009 265.217C415.286 272.446 406.598 276.061 395.943 276.061C374 276.061 365.121 261.158 369.307 231.35C371.463 215.876 375.902 204.524 382.625 197.294C389.347 190.064 397.973 186.449 408.5 186.449Z" fill="white"/>
<path d="M471.811 187.971L491.408 242.195H491.598C491.852 241.434 492.169 238.263 492.549 232.682L498.828 187.971H515L502.823 274.349H486.651L466.484 219.935C466.357 220.823 466.23 222.155 466.103 223.93C465.977 225.706 465.723 227.609 465.342 229.638L459.254 274.349H443.272L455.449 187.971H471.811Z" fill="white"/>
</svg>
